<?xml version="1.0" encoding="UTF-8"?>
<svg width="101px" height="35px" viewBox="0 0 101 35" version="1.1" xmlns="http://www.w3.org/2000/svg" xmlns:xlink="http://www.w3.org/1999/xlink">
    <title>Artboard</title>
    <g id="Artboard" stroke="none" stroke-width="1" fill="none" fill-rule="evenodd">
        <rect fill="#FFFFFF" x="0" y="0" width="101" height="35"></rect>
        <g id="Group-Copy">
            <g id="Layer_2">
                <polygon id="Path" fill="#9DA97E" fill-rule="nonzero" points="15.6407426 0.184660479 100.330142 0.184660479 85.087445 34.7859306 0.398045921 34.7859306"></polygon>
                <path d="M57.6017587,19.7525159 L52.0906693,32.7279922 L46.8237421,32.7279922 C46.8237421,32.7279922 44.9750855,32.8675134 44.2077186,31.6118222 C44.1030777,31.4374206 34.4412311,8.69545677 34.4412311,8.69545677 C34.1609925,7.86479792 33.7864932,7.06898678 33.3250611,6.32359551 C32.5925745,5.06790425 30.7439179,5.2074255 30.7439179,5.2074255 L30.7439179,3.14948705 L41.5568149,3.14948705 C41.5568149,3.14948705 43.4054714,3.0099658 44.137958,4.26565706 C44.5993901,5.01104834 44.9738895,5.80685948 45.254128,6.63751832 L52.1953102,23.1010259 L55.6135809,15.0436737 L52.8929165,8.62569614 C52.6126779,7.7950373 52.2381786,6.99922616 51.7767465,6.25383488 C51.0442599,4.99814362 49.1956033,5.13766488 49.1956033,5.13766488 L49.1956033,3.14948705 L60.0085002,3.14948705 C60.0085002,3.14948705 61.8571568,3.0099658 62.5896434,4.26565706 C63.0510755,5.01104834 63.4255748,5.80685948 63.7058134,6.63751832 L69.8447484,21.1128481 L74.1350269,11.0324377 C74.1350269,11.0324377 75.1814362,8.45129458 73.2978994,6.32359551 C72.6175671,5.51961056 71.5924296,5.09138856 70.5423547,5.17254519 L70.5423547,3.14948705 L82.7504641,3.14948705 L82.7504641,5.13766488 C82.7504641,5.13766488 80.9018075,4.99814362 80.169321,6.25383488 C79.7078888,6.99922616 79.3333895,7.7950373 79.053151,8.62569614 L68.8680997,32.6931119 L65.2405471,32.6931119 C65.2405471,32.6931119 63.4267709,32.8326331 62.659404,31.5769419 L57.6017587,19.7525159 Z" id="Path" fill="#FFFFFF" fill-rule="nonzero"></path>
                <path d="M18.2916463,24.1823156 L19.5822179,21.1477284 L23.0353688,21.1477284 C21.2913532,17.0667318 19.5822179,13.1601368 19.5822179,13.1601368 L14.5943332,24.8799218 C14.5943332,24.8799218 13.5479238,27.461065 15.466341,29.588764 C16.7569126,31.0188569 18.1870054,30.7746947 18.1870054,30.7746947 L18.1870054,32.7628725 L5.97889595,32.7628725 L5.97889595,30.7398144 C5.97889595,30.7398144 7.82755252,30.8793356 8.59491939,29.6585247 C9.05379183,28.8994677 9.42808345,28.0924014 9.7110894,27.2517831 L19.8612604,3.14948705 L24.7096238,3.14948705 C24.7096238,3.14948705 26.5931607,3.04484612 27.3605276,4.30053737 C27.8214025,5.04139756 28.1848286,5.83859029 28.4418173,6.67239863 C28.4418173,6.67239863 37.7897411,28.7865169 38.3129458,29.693405 C38.8361505,30.6002931 40.9289692,30.7746947 40.9289692,30.7746947 L40.9289692,32.7977528 L30.0463117,32.6931119 C30.0463117,32.6931119 28.1976551,32.8326331 27.4651685,31.5769419 C27.3954079,31.4374206 26.069956,28.3679531 24.2910601,24.1823156 L18.2916463,24.1823156 Z" id="Path" fill="#FFFFFF" fill-rule="nonzero"></path>
                <path d="M68.6588178,34.7859306 C71.7980459,33.2860772 76.9603322,30.4956522 76.4720078,27.7401075 C75.9836834,24.9845628 77.4486566,23.7986321 81.9830972,19.2293112 C84.5991207,16.5784074 82.855105,15.0087934 82.1923791,11.9742062 C81.5296532,8.93961895 92.1681485,2.55652174 94.0865657,0.184660479 L96.0747435,0.184660479 C94.1563263,2.52164143 85.192086,9.42794333 85.7850513,11.9742062 C86.3780166,14.520469 90.3543723,16.5784074 87.7383488,19.2293112 C83.2387885,23.7986321 83.9363947,24.4962384 84.4944797,27.7401075 C85.0525647,30.9839766 83.2387885,33.2860772 82.3667807,34.7859306 L68.6588178,34.7859306 Z" id="Path" fill="#3C566E"></path>
            </g>
        </g>
    </g>
</svg>