<?xml version="1.0" encoding="UTF-8"?>
<svg width="472px" height="53px" viewBox="0 0 472 53" version="1.1" xmlns="http://www.w3.org/2000/svg" xmlns:xlink="http://www.w3.org/1999/xlink">
    <title>Artboard</title>
    <g id="Artboard" stroke="none" stroke-width="1" fill="none" fill-rule="evenodd">
        <g id="american_whitewater-logo-horizontal-color" fill="#FFFFFF" transform="translate(-0.000000, 0.000000)">
            <g id="Whitewater" transform="translate(144.846235, 31.966066)">
                <path d="M29.8682927,20.078685 L40.7567338,20.078685 L46.8502651,3.19660657 C47.2529074,1.99320396 48.0212036,0.945527259 49.0479321,0.199787911 L41.8555673,0.199787911 C42.1534754,0.56374279 42.2969195,1.02993619 42.2551432,1.49840933 C42.2500705,2.18370482 42.1144601,2.86175697 41.8555673,3.49628844 L38.4591729,12.9862142 L38.3592789,12.9862142 L33.4644751,0.199787911 L22.1764581,0.199787911 L17.4814422,12.9862142 L17.3815483,12.9862142 L13.9851538,3.49628844 C13.726261,2.86175697 13.5906506,2.18370482 13.5855779,1.49840933 C13.5782552,1.0341959 13.7181344,0.579588401 13.9851538,0.199787911 L0.499469777,0.199787911 C1.35335389,0.879897771 2.00885797,1.77690336 2.39745493,2.79703075 L9.09034995,20.078685 L19.8788971,20.078685 L24.673807,6.89268293 L24.773701,6.89268293 L29.8682927,20.078685 Z" id="Path"></path>
                <path d="M61.8343584,8.09141039 L61.8343584,3.5961824 C61.7113897,2.3770741 62.0698835,1.15819527 62.833298,0.199787911 L49.5474019,0.199787911 C50.3108164,1.15819527 50.6693102,2.3770741 50.5463415,3.5961824 L50.5463415,16.5823966 C50.6644802,17.8319418 50.3078454,19.0801634 49.5474019,20.078685 L62.833298,20.078685 C62.0728545,19.0801634 61.7162197,17.8319418 61.8343584,16.5823966 L61.8343584,11.3879109 L70.3253446,11.3879109 L70.3253446,16.5823966 C70.4128227,17.8144918 70.0972752,19.0416209 69.426299,20.078685 L82.6123012,20.078685 C81.8518576,19.0801634 81.4952229,17.8319418 81.6133616,16.5823966 L81.6133616,3.5961824 C81.4903929,2.3770741 81.8488867,1.15819527 82.6123012,0.199787911 L69.426299,0.199787911 C70.1038388,1.19658273 70.4209928,2.3947202 70.3253446,3.5961824 L70.3253446,8.09141039 L61.8343584,8.09141039 Z" id="Path"></path>
                <path d="M97.9959703,20.078685 C97.3249942,19.0416209 97.0094467,17.8144918 97.0969247,16.5823966 L97.0969247,3.5961824 C97.0012766,2.3947202 97.3184306,1.19658273 97.9959703,0.199787911 L84.8099682,0.199787911 C85.5285682,1.17739688 85.849837,2.39107902 85.7090138,3.5961824 L85.7090138,16.5823966 C85.846131,17.8184959 85.5263576,19.0620589 84.8099682,20.078685 L97.9959703,20.078685 Z" id="Path"></path>
                <path d="M99.8939555,0.199787911 L98.8950159,4.29544008 C100.250319,3.71536138 101.717215,3.44245057 103.190456,3.49628844 L108.285048,3.49628844 L108.285048,16.5823966 C108.422165,17.8184959 108.102392,19.0620589 107.386002,20.078685 L120.572004,20.078685 C119.901028,19.0416209 119.585481,17.8144918 119.672959,16.5823966 L119.672959,3.49628844 L124.867444,3.49628844 C126.308515,3.44042019 127.743364,3.71372489 129.06299,4.29544008 L128.163945,0.199787911 L99.8939555,0.199787911 Z" id="Path"></path>
                <path d="M142.94825,16.7821845 L142.94825,11.3879109 L151.039661,11.3879109 C152.757526,11.3485806 154.47242,11.5503329 156.134252,11.9872747 L156.134252,7.59194062 C154.465612,7.98297163 152.752473,8.15092644 151.039661,8.09141039 L142.94825,8.09141039 L142.94825,3.49628844 L152.138494,3.49628844 C153.882554,3.48380551 155.623253,3.65118043 157.33298,3.99575822 L156.433934,0.199787911 L130.661294,0.199787911 C131.338833,1.19658273 131.655987,2.3947202 131.560339,3.5961824 L131.560339,16.5823966 C131.647817,17.8144918 131.33227,19.0416209 130.661294,20.078685 L156.83351,20.078685 L157.83245,16.1828208 C156.173525,16.6349383 154.456416,16.8369511 152.737858,16.7821845 L142.94825,16.7821845 Z" id="Path"></path>
                <path d="M187.101379,20.078685 L198.089714,20.078685 L204.183245,3.19660657 C204.585887,1.99320396 205.354183,0.945527259 206.380912,0.199787911 L199.088653,0.199787911 C199.458208,0.524436998 199.644883,1.00979282 199.588123,1.49840933 C199.58305,2.18370482 199.44744,2.86175697 199.188547,3.49628844 L195.792153,12.9862142 L195.692259,12.9862142 L190.797455,0.199787911 L179.509438,0.199787911 L174.814422,12.9862142 L174.714528,12.9862142 L171.318134,3.49628844 C171.059241,2.86175697 170.92363,2.18370482 170.918558,1.49840933 C170.865233,1.02879218 171.010032,0.558196843 171.318134,0.199787911 L157.83245,0.199787911 C158.686334,0.879897771 159.341838,1.77690336 159.730435,2.79703075 L166.323436,20.078685 L177.211877,20.078685 L182.006787,6.89268293 L182.106681,6.89268293 L187.101379,20.078685 Z" id="Path"></path>
                <path d="M212.274655,11.3879109 L216.769883,4.69501591 L221.065323,11.3879109 L212.274655,11.3879109 Z M222.963309,14.6844115 L224.561612,17.2816543 C224.873895,17.7200926 225.047845,18.2419433 225.061082,18.7800636 C225.061082,19.1796394 224.961188,19.2795334 224.361824,20.078685 L239.246023,20.078685 C238.231617,19.2963185 237.353965,18.3511553 236.64878,17.2816543 L226.060021,0.199787911 L212.674231,0.199787911 L213.972853,1.29862142 L203.084411,16.4825027 C202.147034,17.8512469 201.001008,19.0646863 199.688017,20.078685 L208.179003,20.078685 C207.579639,19.3794274 207.479745,19.2795334 207.479745,18.5802757 C207.506107,18.1835314 207.644683,17.8024495 207.879321,17.4814422 L209.8772,14.6844115 L222.963309,14.6844115 Z" id="Shape"></path>
                <path d="M232.752916,0.199787911 L231.853871,4.29544008 C233.170224,3.70327765 234.607549,3.42950133 236.049417,3.49628844 L241.243902,3.49628844 L241.243902,16.5823966 C241.362041,17.8319418 241.005406,19.0801634 240.244963,20.078685 L253.430965,20.078685 C252.759989,19.0416209 252.444441,17.8144918 252.531919,16.5823966 L252.531919,3.49628844 L257.726405,3.49628844 C259.168272,3.42950133 260.605598,3.70327765 261.921951,4.29544008 L261.022906,0.199787911 L232.752916,0.199787911 Z" id="Path"></path>
                <path d="M275.807211,16.7821845 L275.807211,11.3879109 L283.898621,11.3879109 C285.616486,11.3485806 287.33138,11.5503329 288.993213,11.9872747 L288.993213,7.59194062 C287.324572,7.98297163 285.611433,8.15092644 283.898621,8.09141039 L275.807211,8.09141039 L275.807211,3.49628844 L284.997455,3.49628844 C286.741515,3.48380551 288.482214,3.65118043 290.191941,3.99575822 L289.292895,0.199787911 L263.520255,0.199787911 C264.197794,1.19658273 264.514948,2.3947202 264.4193,3.5961824 L264.4193,16.5823966 C264.506778,17.8144918 264.191231,19.0416209 263.520255,20.078685 L289.692471,20.078685 L290.791304,16.1828208 C289.096473,16.6251591 287.347851,16.8269232 285.596819,16.7821845 L275.807211,16.7821845 Z" id="Path"></path>
                <path d="M304.57667,3.49628844 L310.969883,3.49628844 C312.368399,3.49628844 312.867869,3.69607635 312.867869,4.59512195 L312.867869,6.99257688 C312.867869,7.99151644 312.368399,8.09141039 310.969883,8.09141039 L304.57667,8.09141039 L304.57667,3.49628844 Z M308.072959,11.3879109 L313.467232,20.078685 L326.153765,20.078685 C325.172802,19.175584 324.331197,18.1319941 323.656416,16.9819724 L319.560764,11.3879109 C322.058112,11.288017 324.155885,11.188123 324.155885,8.19130435 L324.155885,4.59512195 C324.155885,1.29862142 321.658537,0.199787911 316.464051,0.199787911 L291.990032,0.199787911 C292.789183,0.998939555 293.188759,1.69819724 293.188759,3.5961824 L293.188759,16.5823966 C293.276237,17.8144918 292.96069,19.0416209 292.289714,20.078685 L305.475716,20.078685 C304.759326,19.0620589 304.439553,17.8184959 304.57667,16.5823966 L304.57667,11.3879109 L308.072959,11.3879109 Z" id="Shape"></path>
            </g>
            <g id="American" transform="translate(149.840933, 0.000000)">
                <path d="M13.485684,11.3879109 L17.980912,4.69501591 L22.2763521,11.3879109 L13.485684,11.3879109 Z M24.1743372,14.6844115 L25.7726405,17.1817603 C26.0580947,17.6333757 26.2295044,18.1476049 26.2721103,18.6801697 C26.2721103,19.1796394 26.1722163,19.2795334 25.5728526,19.9787911 L40.5569459,19.9787911 C39.4968612,19.2895533 38.6084614,18.3669842 37.9597031,17.2816543 L27.2710498,0.199787911 L13.8852598,0.199787911 L15.1838812,1.29862142 L4.29544008,16.3826087 C3.41232031,17.7941883 2.2578996,19.0165161 0.899045599,19.9787911 L9.39003181,19.9787911 C8.79066808,19.3794274 8.69077413,19.2795334 8.69077413,18.5802757 C8.68314557,18.1467907 8.82415609,17.7237591 9.09034995,17.3815483 L11.0882291,14.6844115 L24.1743372,14.6844115 Z" id="Shape"></path>
                <path d="M62.5336161,11.3879109 L62.4337222,11.3879109 L56.7397667,0.199787911 L41.1563097,0.199787911 C42.1552492,1.09883351 42.2551432,1.49840933 42.2551432,3.69607635 L42.2551432,16.4825027 C42.2551432,18.6801697 42.1552492,19.0797455 41.1563097,19.9787911 L48.3486744,19.9787911 C47.3497349,19.0797455 47.149947,18.6801697 47.149947,16.4825027 L47.149947,4.39533404 L47.2498409,4.39533404 L55.3412513,19.9787911 L63.1329799,19.9787911 L71.4241782,4.39533404 L71.5240721,4.39533404 L71.5240721,16.5823966 C71.6580786,17.8025071 71.2983698,19.025517 70.5251326,19.9787911 L83.8110286,19.9787911 C83.0377914,19.025517 82.6780826,17.8025071 82.8120891,16.5823966 L82.8120891,3.5961824 C82.6891204,2.3770741 83.0476142,1.15819527 83.8110286,0.199787911 L68.6271474,0.199787911 L62.5336161,11.3879109 Z" id="Path"></path>
                <path d="M97.7961824,16.6822906 L97.7961824,11.3879109 L105.887593,11.3879109 C107.598383,11.3801577 109.305474,11.5475196 110.982185,11.8873807 L110.982185,7.59194062 C109.305474,7.93180168 107.598383,8.09916361 105.887593,8.09141039 L97.7961824,8.09141039 L97.7961824,3.49628844 L106.986426,3.49628844 C108.732382,3.43262844 110.479076,3.60057979 112.180912,3.99575822 L111.281866,0.199787911 L85.5092259,0.199787911 C86.1867656,1.19658273 86.5039196,2.3947202 86.4082715,3.5961824 L86.4082715,16.5823966 C86.5207938,17.7853171 86.2021514,18.9890774 85.5092259,19.9787911 L111.681442,19.9787911 L112.780276,16.1828208 C111.078439,16.5779992 109.331745,16.7459506 107.58579,16.6822906 L97.7961824,16.6822906 Z" id="Path"></path>
                <path d="M126.665536,3.49628844 L133.058749,3.49628844 C134.557158,3.49628844 134.956734,3.5961824 134.956734,4.59512195 L134.956734,6.99257688 C134.956734,7.99151644 134.557158,8.09141039 133.058749,8.09141039 L126.665536,8.09141039 L126.665536,3.49628844 Z M130.161824,11.3879109 L135.556098,19.9787911 L148.24263,19.9787911 C147.272347,19.1296782 146.460589,18.1149804 145.845175,16.9819724 L141.749523,11.3879109 C144.146978,11.288017 146.344645,11.0882291 146.344645,8.19130435 L146.344645,4.59512195 C146.344645,1.19872747 143.847296,0.199787911 138.552916,0.199787911 L114.078897,0.199787911 C114.977943,0.998939555 115.377519,1.69819724 115.377519,3.5961824 L115.377519,16.5823966 C115.511525,17.8025071 115.151816,19.025517 114.378579,19.9787911 L127.564581,19.9787911 C126.871656,18.9890774 126.553013,17.7853171 126.665536,16.5823966 L126.665536,11.3879109 L130.161824,11.3879109 Z" id="Shape"></path>
                <path d="M162.327678,19.9787911 C161.634752,18.9890774 161.31611,17.7853171 161.428632,16.5823966 L161.428632,3.5961824 C161.332984,2.3947202 161.650138,1.19658273 162.327678,0.199787911 L149.141676,0.199787911 C149.860276,1.17739688 150.181544,2.39107902 150.040721,3.5961824 L150.040721,16.5823966 C150.040721,18.4803818 149.741039,19.2795334 149.141676,19.9787911 L162.327678,19.9787911 Z" id="Path"></path>
                <path d="M189.598727,0.199787911 L171.717709,0.199787911 C166.9228,0.199787911 164.225663,1.69819724 164.225663,5.99363733 L164.225663,14.1849417 C164.225663,18.4803818 166.9228,19.9787911 171.717709,19.9787911 L190.098197,19.9787911 L190.997243,15.9830329 C189.498834,16.4825027 188.799576,16.6822906 184.204454,16.6822906 L177.811241,16.6822906 C176.312831,16.6822906 175.51368,16.3826087 175.51368,15.4835631 L175.51368,4.69501591 C175.51368,3.79597031 176.312831,3.49628844 177.811241,3.49628844 L185.902651,3.49628844 C187.449566,3.46213827 188.994322,3.63004649 190.497773,3.99575822 L189.598727,0.199787911 Z" id="Path"></path>
                <path d="M203.384093,11.3879109 L207.979215,4.69501591 L212.174761,11.3879109 L203.384093,11.3879109 Z M214.172641,14.6844115 L215.770944,17.1817603 C216.029066,17.6392564 216.16657,18.1548942 216.17052,18.6801697 C216.17052,19.1796394 216.070626,19.2795334 215.471262,19.9787911 L230.455355,19.9787911 C229.419075,19.2611579 228.536144,18.344268 227.858112,17.2816543 L217.269353,0.199787911 L203.783669,0.199787911 L205.082291,1.29862142 L194.293743,16.3826087 C193.352588,17.748302 192.207078,18.9611951 190.897349,19.9787911 L199.288441,19.9787911 C198.689077,19.3794274 198.589183,19.2795334 198.589183,18.5802757 C198.624691,18.1379283 198.799563,17.7182361 199.088653,17.3815483 L201.086532,14.6844115 L214.172641,14.6844115 Z" id="Shape"></path>
                <path d="M249.435207,19.9787911 L264.119618,19.9787911 L264.119618,3.69607635 C264.119618,1.49840933 264.219512,1.09883351 265.218452,0.199787911 L258.026087,0.199787911 C259.025027,1.09883351 259.224814,1.49840933 259.224814,3.69607635 L259.224814,16.3826087 L259.025027,16.3826087 L246.937858,0.199787911 L230.954825,0.199787911 C231.953765,1.09883351 232.153552,1.49840933 232.153552,3.69607635 L232.153552,16.4825027 C232.153552,18.6801697 231.953765,19.0797455 230.954825,19.9787911 L238.14719,19.9787911 C237.14825,19.0797455 237.048356,18.6801697 237.048356,16.4825027 L237.048356,3.5961824 L237.14825,3.5961824 L249.435207,19.9787911 Z" id="Path"></path>
            </g>
            <path d="M122.669777,51.7450689 C123.968399,49.5474019 126.665536,46.1510074 125.866384,41.2562036 C125.067232,36.3613998 123.968399,35.3624602 130.761188,28.4697773 C133.315853,25.9151122 131.618112,23.7040759 129.892909,21.4141739 L129.634451,21.0700443 L129.634451,21.0700443 L129.378749,20.7244149 C128.66116,19.7427074 128.014923,18.7391235 127.764369,17.6812301 C126.865323,13.8852598 140.251113,3.49628844 143.148038,1.70530257e-13 L143.148038,1.70530257e-13 L149.541251,1.70530257e-13 L126.765429,51.7450689 Z M36.483926,4.39474872 L36.3931044,4.39467556 C36.3723257,4.39494383 36.3613998,4.39533404 36.3613998,4.39533404 L29.169035,4.39533404 L13.8852598,40.457052 C13.51626,41.7220629 12.9786658,42.9316499 12.2869565,44.0532344 C11.0882291,45.9512195 8.39109226,45.7514316 8.39109226,45.7514316 L8.39109226,45.7514316 L8.39109226,48.7482503 L26.6716861,48.7482503 L26.6716861,45.7514316 C25.0903333,45.8826892 23.5496796,45.2063046 22.5760339,43.9533404 C20.8811936,42.0430349 20.3814698,39.3522144 21.2774125,36.9607635 L21.2774125,36.9607635 L28.6695652,19.3794274 C28.6695652,19.3794274 30.9150731,24.475003 33.3181605,30.0887727 L33.5907691,30.7262615 L33.5907691,30.7262615 L33.8640509,31.366702 L28.6695652,31.366702 L26.7715801,35.961824 L35.7620361,35.961824 C38.4591729,42.1552492 40.357158,46.7503712 40.457052,46.9501591 C41.6557794,48.8481442 44.3529162,48.6483563 44.3529162,48.6483563 L44.3529162,48.6483563 L60.635631,48.8481442 L60.635631,45.8513256 C60.635631,45.8513256 57.5389183,45.5516437 56.7397667,44.1531283 C56.7317752,44.1391432 56.7224651,44.1219914 56.7118635,44.1017377 L56.6329745,43.9435104 C56.2101929,43.0686456 54.8855751,40.0268686 53.1939309,36.0922855 L52.8121857,35.2037551 C51.9083644,33.0986426 50.9165149,30.7788636 49.9111949,28.4220408 L49.4797361,27.4102237 L49.4797361,27.4102237 L49.0479321,26.3969777 C45.4517497,17.9559385 41.9554613,9.68971368 41.9554613,9.68971368 C41.5729744,8.46127493 41.0359032,7.28643165 40.357158,6.19342524 C39.3082715,4.53268823 37.035684,4.40157741 36.483926,4.39474872 Z M65.4305408,6.19342524 C64.3317073,4.29544008 61.6345705,4.495228 61.6345705,4.495228 L61.6345705,4.495228 L45.3518558,4.495228 L45.3518558,7.49204666 C45.3518558,7.49204666 48.1488865,7.29225875 49.24772,9.09034995 C49.9408148,10.2248694 50.510141,11.4305014 50.9459173,12.6865323 C50.9459173,12.6865323 54.2923648,20.8528632 57.7886532,29.2439555 L58.418913,30.7550641 C61.7115088,38.6411697 64.9670329,46.3048441 65.5304348,47.149947 C66.7291622,48.9480382 69.426299,48.7482503 69.426299,48.7482503 L77.4178155,48.7482503 L85.6091198,29.268929 C85.6611772,29.3913342 85.7132545,29.5137791 85.7653409,29.6362385 L86.0778852,30.3709682 C86.2341278,30.7382192 86.3902624,31.1051487 86.5460026,31.4710784 L86.8568723,32.2014038 C90.1137011,39.8516046 93.1124221,46.8615208 93.2010604,46.9501591 C94.299894,48.8481442 97.0969247,48.6483563 97.0969247,48.6483563 L102.491198,48.6483563 L117.67508,12.5866384 C118.124382,11.3680247 118.693222,10.1968841 119.373277,9.09034995 C120.47211,7.19236479 123.269141,7.3921527 123.269141,7.3921527 L123.269141,7.3921527 L123.269141,4.495228 L104.988547,4.495228 L104.988547,7.49204666 C106.551901,7.33723861 108.08908,7.97460563 109.084199,9.1902439 C110.71891,11.1686807 111.210482,13.8534211 110.382821,16.2827147 L110.382821,16.2827147 L103.889714,31.366702 L94.7993637,9.68971368 C94.350061,8.47109994 93.7812213,7.29995942 93.1011665,6.19342524 C92.002333,4.29544008 89.2053022,4.495228 89.2053022,4.495228 L89.2053022,4.495228 L73.0224814,4.495228 L73.0224814,7.49204666 C73.0224814,7.49204666 75.8195122,7.29225875 76.9183457,9.09034995 C77.610055,10.2119344 78.1476492,11.4215214 78.516649,12.6865323 L78.516649,12.6865323 L82.6123012,22.2763521 L77.5177094,34.3635207 L67.1287381,9.68971368 C66.6794353,8.47109994 66.1105956,7.29995942 65.4305408,6.19342524 Z M140.251113,1.70530257e-13 C137.354189,3.49628844 121.371156,13.1860021 122.370095,17.6812301 C123.369035,22.1764581 125.966278,24.573913 122.070414,28.4697773 C115.377519,35.3624602 113.179852,37.1605514 113.879109,41.2562036 C114.578367,45.3518558 106.886532,49.5474019 102.191516,51.7450689 L102.191516,51.7450689 L0,51.7450689 L22.7758218,1.70530257e-13 Z" id="Combined-Shape" fill-rule="nonzero"></path>
        </g>
    </g>
</svg>