<?xml version="1.0" standalone="no"?>
<!DOCTYPE svg PUBLIC "-//W3C//DTD SVG 20010904//EN"
 "http://www.w3.org/TR/2001/REC-SVG-20010904/DTD/svg10.dtd">
<svg version="1.0" xmlns="http://www.w3.org/2000/svg"
 width="700.000000pt" height="700.000000pt" viewBox="0 0 700.000000 700.000000"
 preserveAspectRatio="xMidYMid meet">
<metadata>
Created by potrace 1.11, written by Peter Selinger 2001-2013
</metadata>
<g transform="translate(0.000000,700.000000) scale(0.100000,-0.100000)"
fill="#000000" stroke="none">
<path d="M3769 4512 l-2325 -2 -448 -1016 c-246 -559 -446 -1017 -444 -1019 2
-2 1127 -5 2500 -7 1656 -2 2500 0 2506 7 5 6 57 118 115 250 58 132 117 267
132 300 115 259 652 1480 651 1481 -6 7 -732 9 -2687 6z m-1702 -183 c41 -15
77 -53 101 -107 12 -26 116 -272 233 -547 316 -748 391 -916 414 -931 11 -7
45 -19 75 -27 l55 -14 3 -62 3 -61 -338 0 c-186 0 -356 5 -377 10 -74 17 -85
32 -187 271 l-96 224 -177 3 c-97 1 -176 6 -176 10 0 4 16 46 36 94 l36 87 99
3 98 3 -96 223 c-53 122 -97 221 -99 220 -1 -2 -69 -158 -151 -348 l-148 -345
0 -80 c0 -59 5 -90 19 -119 31 -62 83 -105 148 -123 l58 -16 0 -59 0 -58 -370
0 -370 0 0 65 0 65 33 0 c17 0 51 9 74 20 34 15 47 29 71 77 15 32 168 390
338 795 l309 737 177 1 c101 0 189 -5 205 -11z m1030 -15 c15 -11 38 -38 50
-59 12 -21 120 -272 240 -557 120 -285 220 -518 223 -518 3 0 49 102 102 227
l96 227 -43 101 c-194 461 -191 456 -281 476 l-54 12 0 59 0 58 355 0 c436 0
412 7 479 -133 24 -50 122 -277 217 -504 96 -226 177 -409 180 -405 3 4 61
138 129 297 115 270 124 295 128 365 3 67 1 81 -25 129 -37 71 -86 110 -149
119 l-49 7 -3 63 -3 62 371 0 370 0 0 -58 0 -59 -57 -13 c-40 -8 -66 -21 -84
-41 -15 -16 -64 -115 -111 -227 -45 -108 -194 -458 -329 -777 l-246 -580 -134
0 c-74 0 -146 3 -160 7 -61 17 -73 39 -225 393 -81 190 -150 345 -153 345 -3
0 -78 -169 -165 -375 l-159 -375 -186 0 c-158 0 -192 3 -226 19 -22 10 -45 24
-51 32 -6 8 -145 329 -308 714 -331 778 -329 773 -358 811 -25 31 -75 54 -118
54 l-30 0 0 65 0 66 369 -3 c357 -3 371 -4 398 -24z"/>
</g>
</svg>
