<svg xmlns="http://www.w3.org/2000/svg" width="32" height="32" viewBox="0 0 32 32">
    <g fill="#4b6946">
        <path
                fill="#4b6946"
                d="M16,0C9.3,0,2,1.6,2,5s7.3,5,14,5s14-1.6,14-5S22.7,0,16,0z"
        />
        <path
                data-color="color-2"
                d="M16,12c-5.4,0-11.1-0.9-14-3.2V16c0,3.4,7.3,5,14,5s14-1.6,14-5V8.8C27.1,11.1,21.4,12,16,12 z"
        />
        <path
                fill="#4b6946"
                d="M16,23c-5.4,0-11.1-0.9-14-3.2V27c0,3.4,7.3,5,14,5s14-1.6,14-5v-7.2C27.1,22.1,21.4,23,16,23z"
        />
    </g>
</svg>