<svg xmlns="http://www.w3.org/2000/svg" width="32" height="32" viewBox="0 0 32 32">
    <g fill="#4b6946">
        <path
                fill="#4b6946"
                d="M8,21V3c0-0.553-0.448-1-1-1H1C0.448,2,0,2.447,0,3v18H8z M3,7h2v6H3V7z"/>
        <path
                data-color="color-2"
                d="M0,23v6c0,0.553,0.448,1,1,1h6c0.552,0,1-0.447,1-1v-6H0z"
        />
        <path
                fill="#4b6946"
                d="M18,21V3c0-0.553-0.448-1-1-1h-6c-0.552,0-1,0.447-1,1v18H18z M13,7h2v6h-2V7z"
        />
        <path
                data-color="color-2"
                d="M10,23v6c0,0.553,0.448,1,1,1h6c0.552,0,1-0.447,1-1v-6H10z"
        />
        <path
                data-color="color-2"
                d="M30.808,22.055l-7.917,1.152l0.864,5.937c0.039,0.263,0.179,0.499,0.392,0.658 C24.32,29.932,24.53,30,24.745,30c0.048,0,0.096-0.004,0.144-0.011l5.938-0.864c0.546-0.079,0.925-0.587,0.846-1.133L30.808,22.055z "
        />
        <path
                fill="#4b6946"
                d="M30.52,20.075L27.927,2.264c-0.039-0.263-0.179-0.499-0.392-0.658c-0.212-0.158-0.479-0.223-0.742-0.188 l-5.938,0.864c-0.546,0.079-0.925,0.587-0.846,1.133l2.592,17.812L30.52,20.075z M25.535,6.653l0.864,5.938l-1.979,0.288 l-0.864-5.938L25.535,6.653z"
        />
    </g>
</svg>