<svg xmlns="http://www.w3.org/2000/svg" width="32" height="32" viewBox="0 0 32 32">
    <g fill="#4b6946">
        <path
                fill="#4b6946"
                d="M31,12h-0.548C29.053,6.933,25.067,2.947,20,1.547V1c0-0.552-0.447-1-1-1h-6c-0.553,0-1,0.448-1,1v0.547 C6.933,2.947,2.947,6.933,1.548,12H1c-0.553,0-1,0.448-1,1v6c0,0.552,0.447,1,1,1h0.548C2.947,25.067,6.933,29.053,12,30.453V31 c0,0.552,0.447,1,1,1h6c0.553,0,1-0.448,1-1v-0.547c5.067-1.4,9.053-5.386,10.452-10.453H31c0.553,0,1-0.448,1-1v-6 C32,12.448,31.553,12,31,12z M16,22c-3.309,0-6-2.691-6-6s2.691-6,6-6s6,2.691,6,6S19.309,22,16,22z M28.366,12h-5.448 C22.216,10.791,21.209,9.784,20,9.082V3.635C23.961,4.915,27.086,8.039,28.366,12z M12,3.635v5.448 C10.791,9.784,9.784,10.791,9.082,12H3.634C4.914,8.039,8.039,4.915,12,3.635z M3.634,20h5.448c0.702,1.209,1.709,2.216,2.918,2.918 v5.448C8.039,27.085,4.914,23.961,3.634,20z M20,28.365v-5.448c1.209-0.702,2.216-1.709,2.918-2.918h5.448 C27.086,23.961,23.961,27.085,20,28.365z"
        />
    </g>
</svg>